<svg width="87" height="87" viewBox="0 0 87 87" fill="none" xmlns="http://www.w3.org/2000/svg">
<path d="M41.6875 41.6875V32.625C48.0312 32.625 51.7976 33.5312 51.7976 37.1562C51.7976 41.4048 45.6931 41.6875 41.6875 41.6875ZM41.6875 45.3016V54.375C48.8795 54.375 53.8095 53.6935 53.8095 49.8147C53.8095 45.6532 48.4844 45.3016 41.6875 45.3016ZM87 43.5C87 67.5229 67.5229 87 43.5 87C19.4771 87 0 67.5229 0 43.5C0 19.4771 19.4771 0 43.5 0C67.5229 0 87 19.4771 87 43.5ZM61.625 49.271C61.625 44.6346 57.8586 42.6228 55.1399 41.9304C57.3765 41.122 59.9829 37.8051 58.9316 33.8539C58.0435 30.5116 54.9478 27.5464 47.125 27.2817V21.75H43.5V27.1875H41.6875V21.75H38.0625V27.1875H29V32.625H31.9616C33.5602 32.625 34.4375 33.6618 34.4375 35.1698V51.2793C34.4375 52.8344 33.5204 54.375 31.9181 54.375H29.9642L29.058 59.7726H38.0625V65.25H41.6875V59.7726H43.5V65.25H47.125V59.8125C56.753 59.8125 61.625 55.5821 61.625 49.271Z" fill="#FB923C"/>
</svg>
