<svg width="653" height="519" viewBox="0 0 653 519" fill="none" xmlns="http://www.w3.org/2000/svg">
<path d="M329.049 309.786L377.208 261.013C411.349 294.723 426.803 319.615 407.54 339.124C384.963 361.989 350.607 331.072 329.049 309.786ZM309.844 329.237L261.628 378.069C300.334 416.287 330.488 438.817 351.099 417.942C373.214 395.545 346.423 365.355 309.844 329.237ZM563.282 560.33C435.623 689.618 227.299 690.941 98.0119 563.284C-31.2749 435.627 -32.5953 227.303 95.063 98.0147C222.721 -31.2736 431.046 -32.5964 560.333 95.0604C689.619 222.717 690.94 431.042 563.282 560.33ZM396.051 456.547C420.688 431.594 411.11 400.752 400.157 382.579C416.49 390.114 448.143 386.113 463.482 359.261C476.463 336.554 475.56 304.145 434.866 261.151L464.262 231.38L444.752 212.116L415.857 241.38L406.103 231.749L434.998 202.485L415.489 183.222L386.594 212.486L337.821 164.328L308.926 193.592L324.865 209.33C333.468 217.825 332.68 228.066 324.667 236.182L239.06 322.882C230.796 331.251 217.674 334.669 209.051 326.155L198.535 315.772L164.975 340.005L213.435 387.855L184.328 417.334L203.838 436.597L232.945 407.118L242.699 416.75L213.592 446.228L233.101 465.491L261.996 436.227C313.812 487.39 362.513 490.513 396.051 456.547Z" fill="#737373" fill-opacity="0.1"/>
</svg>
