<svg width="87" height="87" viewBox="0 0 87 87" fill="none" xmlns="http://www.w3.org/2000/svg">
<g clip-path="url(#clip0_3_69)">
<path d="M42.4325 0.257022C44.3286 -0.813059 46.6433 1.66936 45.6358 3.7196C45.0507 5.39087 42.8322 5.83528 41.6991 4.56136C40.4985 3.33874 40.89 0.922233 42.4325 0.257022ZM22.0375 2.63634C23.1894 2.12319 24.6475 3.2653 24.53 4.62397C24.6523 6.09892 22.9858 7.18454 21.8117 6.48355C20.2562 5.83152 20.4341 3.09864 22.0375 2.63634ZM63.8088 6.52497C62.0088 6.28959 61.7239 3.2267 63.4569 2.60998C64.801 1.90051 66.0343 3.23093 66.2309 4.60985C65.949 5.78726 65.0381 6.86535 63.8088 6.52497ZM26.6781 12.0307C28.6038 10.7126 31.3517 12.6757 31.0555 15.0964C30.9554 17.5407 27.9557 18.9568 26.2631 17.3044C24.6266 16.0065 24.8746 13.0288 26.6781 12.0307ZM56.0758 13.4294C56.9349 11.0332 60.4162 10.9607 61.3941 13.2934C62.3607 15.1087 61.1718 17.3567 59.4497 17.9739C57.1685 18.4347 55.0018 15.7659 56.0758 13.4294ZM39.9765 17.8378C39.9578 15.7781 41.6912 14.2434 43.5 14.1031C44.6997 14.3634 46.0073 14.9166 46.5219 16.2268C47.4811 18.0341 46.6293 20.5226 44.8963 21.3522C44.1037 21.8328 43.1668 21.6525 42.3037 21.5965C40.9844 20.8955 39.8734 19.5208 39.9765 17.8378ZM9.64609 20.839C11.4052 19.6687 13.7786 21.8046 13.1126 23.8727C12.7459 25.6617 10.5239 26.3895 9.25372 25.2474C7.89782 24.1773 8.11271 21.6045 9.64609 20.839ZM74.7765 20.8352C76.2689 19.5811 78.7319 21.0198 78.554 23.0592C78.6541 24.9188 76.5247 26.3212 75.0431 25.3637C73.4114 24.5699 73.2448 21.8531 74.7765 20.8352ZM48.5059 24.5379C50.9689 23.5804 53.8943 24.7262 55.298 27.1027C57.1498 30.0079 56.1646 34.4323 53.2909 36.0993C50.3134 38.0709 45.9655 36.3997 44.8659 32.801C43.6174 29.5795 45.4361 25.5477 48.5059 24.5379ZM34.0552 24.8548C36.7849 23.4603 40.4584 24.6302 41.7769 27.6521C43.3286 30.5936 42.1288 34.6893 39.3548 36.2081C36.5774 37.9151 32.6589 36.6209 31.3147 33.463C29.8075 30.409 31.146 26.261 34.0552 24.8548ZM19.5858 30.2085C19.7933 28.3051 21.4524 27.0665 23.1263 26.9384C24.9298 27.1738 26.3705 28.6897 26.5667 30.6651C26.4484 32.6207 25.052 34.5321 23.1372 34.5203C21.0305 34.7166 19.1835 32.4484 19.5858 30.2085ZM62.3237 27.3522C64.4865 25.9898 67.4898 27.9732 67.3936 30.6623C67.542 33.5114 64.2181 35.5193 62.0645 33.8481C59.8273 32.4564 60.0017 28.5372 62.3237 27.3522ZM28.1745 37.394C30.704 36.6407 33.5963 37.9311 34.8369 40.4474C36.1959 42.9802 35.6404 46.4988 33.5298 48.3565C30.8228 51.0814 25.8303 49.9873 24.3895 46.2686C22.7339 42.8597 24.7449 38.2913 28.1745 37.394ZM55.5834 37.3798C58.0424 36.6186 60.9313 37.6444 62.2532 40.0689C64.0011 42.8418 63.1667 46.9776 60.5646 48.7652C57.8389 50.8408 53.6168 49.751 52.1169 46.5054C50.2986 43.1483 52.1282 38.4038 55.5834 37.3798ZM11.905 40.5435C14.09 39.649 16.5121 42.2585 15.6269 44.603C15.0862 46.7389 12.3048 47.5284 10.868 45.9537C9.18673 44.4749 9.80921 41.1847 11.905 40.5435ZM71.1303 43.9458C71.0672 41.9864 72.3918 40.2511 74.2484 40.1428C75.7448 40.3994 77.1998 41.7058 77.0815 43.4689C77.2186 45.7974 74.626 47.3801 72.7929 46.286C71.9337 45.8134 71.4931 44.8596 71.1303 43.9458ZM1.16141 41.6936C2.47598 41.0726 4.10201 42.3056 3.80186 43.8855C3.73139 45.6745 1.29104 46.3623 0.394507 44.8676C-0.397628 43.8295 0.0765222 42.2289 1.16141 41.6936ZM84.0476 41.6578C84.9733 40.9446 86.4584 41.4573 86.8251 42.6276C87.4471 43.9058 86.3066 45.6571 84.9772 45.441C83.1111 45.6251 82.5073 42.5471 84.0476 41.6578ZM35.3146 50.2453C38.7737 49.2717 42.4921 52.3935 42.5138 56.2482C42.7396 60.1434 39.0773 63.5975 35.5364 62.6979C32.7994 62.221 30.6518 59.3676 30.7405 56.3744C30.7331 53.5116 32.7294 50.8507 35.3146 50.2453ZM49.0136 50.2373C52.5245 49.1752 56.3538 52.353 56.2981 56.2967C56.4834 60.1199 52.9355 63.4577 49.4686 62.6993C46.2061 62.2426 43.7988 58.3634 44.7097 54.9371C45.1695 52.6538 46.9321 50.797 49.0136 50.2373ZM22.6008 52.61C25.0303 52.1614 27.308 55.0948 26.3227 57.5913C25.6041 60.2517 22.0266 60.9734 20.445 58.8003C18.5897 56.7133 19.9747 52.8981 22.6008 52.61ZM62.7752 52.7272C64.9415 51.7452 67.6007 53.7733 67.4341 56.3179C67.5211 59.119 64.2382 61.0506 62.1197 59.4156C59.7202 57.9477 60.157 53.6278 62.7752 52.7272ZM74.0043 64.9166C73.1561 63.2054 74.6969 60.9371 76.4525 61.254C77.3264 61.238 77.9376 61.9832 78.497 62.6084C78.6119 63.6225 78.8046 64.8324 78.0268 65.6139C76.9706 67.0606 74.5781 66.6477 74.0043 64.9166ZM9.63869 61.7304C11.2795 60.5483 13.6407 62.3114 13.2718 64.3875C13.0756 66.2235 10.9385 67.2729 9.53081 66.2311C8.02006 65.2853 8.07574 62.5924 9.63869 61.7304ZM42.0549 65.5739C44.2029 64.548 46.9395 66.5719 46.7359 69.1325C46.8951 71.9619 43.5104 73.9212 41.4102 72.2222C39.0773 70.7633 39.4662 66.4712 42.0549 65.5739ZM27.0409 69.3646C28.8705 68.3227 31.3256 70.1221 31.159 72.338C31.2147 74.1576 29.5739 75.7083 27.9148 75.4395C26.5406 75.4075 25.6445 74.0742 25.2039 72.8064C25.2265 71.4247 25.752 69.8857 27.0409 69.3646ZM57.4535 69.3966C59.3348 68.1382 62.0088 69.9455 61.8309 72.3154C61.8791 74.7922 58.8572 76.3787 57.1055 74.7517C55.4094 73.4763 55.6165 70.4106 57.4535 69.3966ZM62.7422 83.5468C61.9052 82.1763 62.8905 80.5253 64.2495 80.2127C65.3422 80.4533 66.4975 81.3426 66.2679 82.7135C66.1087 84.5688 63.6013 85.138 62.7422 83.5468ZM20.7599 82.3567C21.0931 81.2706 21.9005 80.1911 23.0819 80.4735C24.8041 80.6058 25.3152 83.415 23.8079 84.2807C22.4525 85.2698 20.88 83.9154 20.7599 82.3567ZM41.0139 83.6028C41.3437 81.996 43.2655 81.2145 44.5322 82.0681C45.3692 82.4569 45.6136 83.4705 45.8285 84.332C45.7137 84.7807 45.611 85.2298 45.5101 85.6785C44.9916 86.3437 44.3252 87.0089 43.4621 86.9849C41.8583 87.1883 40.4115 85.2261 41.0139 83.6028Z" fill="#2574EA"/>
</g>
<defs>
<clipPath id="clip0_3_69">
<rect width="87" height="87" fill="white"/>
</clipPath>
</defs>
</svg>
