<svg width="87" height="87" viewBox="0 0 87 87" fill="none" xmlns="http://www.w3.org/2000/svg">
<g clip-path="url(#clip0_3_65)">
<path d="M87.0001 43.4997C87.0001 67.5242 67.5249 87 43.5007 87C19.4762 87 0.000671387 67.5242 0.000671387 43.4997C0.000671387 19.4755 19.4762 0 43.5007 0C67.5247 0 87.0001 19.4755 87.0001 43.4997Z" fill="#2574EA"/>
<path d="M77.7646 43.5003C77.7646 62.4227 62.4241 77.7645 43.5006 77.7645C24.5773 77.7645 9.23572 62.4227 9.23572 43.5003C9.23572 24.5762 24.5773 9.23544 43.5006 9.23544C62.4243 9.23544 77.7646 24.576 77.7646 43.5003Z" fill="#2574EA"/>
<path d="M40.9581 55.1204L43.7835 44.4813L50.4728 42.0375L52.1367 35.7849L52.0799 35.6298L45.4952 38.0354L50.2395 20.1712H36.7846L30.5801 43.4844L25.3999 45.3768L23.6882 51.8228L28.8645 49.9319L25.2078 63.6715H61.0167L63.3124 55.1204H40.9581Z" fill="#353535"/>
</g>
<defs>
<clipPath id="clip0_3_65">
<rect width="87" height="87" fill="white"/>
</clipPath>
</defs>
</svg>
